<?xml version="1.0" encoding="UTF-8" standalone="no" ?>
<!DOCTYPE svg PUBLIC "-//W3C//DTD SVG 1.1//EN" "http://www.w3.org/Graphics/SVG/1.1/DTD/svg11.dtd">
<svg xmlns="http://www.w3.org/2000/svg" xmlns:xlink="http://www.w3.org/1999/xlink" version="1.1" width="500" height="500" viewBox="0 0 500 500" xml:space="preserve">
<desc>Created with Fabric.js 5.3.0</desc>
<defs>
</defs>
<g transform="matrix(1 0 0 1 240 200)" id="olXJHDuGYrQmHuxxUn3tW"  >
<path style="stroke: rgb(124,124,124); stroke-opacity: 0.51; stroke-width: 2; stroke-dasharray: none; stroke-linecap: butt; stroke-dashoffset: 0; stroke-linejoin: miter; stroke-miterlimit: 4; fill: rgb(255,255,255); fill-opacity: 0; fill-rule: nonzero; opacity: 1;"  transform=" translate(0, 0)" d="M -60 -40 L 60 -40 L 60 40 L -60 40" stroke-linecap="round" />
</g>
<g transform="matrix(1 0 0 1 167.4821235853 160)" id="RfVZp_yiHpaUCV1iGtHE0"  >
<path style="stroke: rgb(223,223,223); stroke-opacity: 0.2; stroke-width: 4; stroke-dasharray: none; stroke-linecap: butt; stroke-dashoffset: 0; stroke-linejoin: miter; stroke-miterlimit: 4; fill: none; fill-rule: nonzero; opacity: 1;"  transform=" translate(-12.51788, -12.51788)" d="M 12.51788 0 C 19.42775 0 25.03576 5.60801 25.03576 12.51788 C 25.03576 19.42775 19.42775 25.03576 12.51788 25.03576 C 5.60801 25.03576 0 19.42775 0 12.51788 C 0 5.60801 5.60801 0 12.51788 0 z" stroke-linecap="round" />
</g>
<g transform="matrix(1 0 0 1 167.48212 240)" id="wlYmSZ4Z8mVH5WYKxjxA6"  >
<path style="stroke: rgb(223,223,223); stroke-opacity: 0.2; stroke-width: 4; stroke-dasharray: none; stroke-linecap: butt; stroke-dashoffset: 0; stroke-linejoin: miter; stroke-miterlimit: 4; fill: none; fill-rule: nonzero; opacity: 1;"  transform=" translate(-12.51788, -12.51788)" d="M 12.51788 0 C 19.42775 0 25.03576 5.60801 25.03576 12.51788 C 25.03576 19.42775 19.42775 25.03576 12.51788 25.03576 C 5.60801 25.03576 0 19.42775 0 12.51788 C 0 5.60801 5.60801 0 12.51788 0 z" stroke-linecap="round" />
</g>
</svg>